<svg xmlns="http://www.w3.org/2000/svg" viewBox="0 0 304.15 169.67"><title>Fichier 31</title><g id="Calque_2" data-name="Calque 2"><g id="Calque_2-2" data-name="Calque 2"><ellipse cx="224.42" cy="33.92" rx="31.56" ry="23.53" transform="translate(-1.44 56.3) rotate(-14.25)" fill="#efc236"/><path d="M303.45,15q.53-3.81.7-7.57c-5.54,15.84-16.75,32-32.6,45.15-33.39,27.66-75.83,32.68-93.36,9.57-3.34-4.39-11.42-14.88-11.23-12.72,2.24,25.26-20.69,43.28-54.07,47.51-18,2.28-34.11-.49-45.21-6.72,21.61,15.94,51,25.92,84.49,26.69C227.61,118.64,295.34,73,303.45,15Z" fill="#efc236"/><path d="M14.92,169.67c-2.62-5.7-3-11.52-.61-17.1,8.92-21.24,53.37-31.07,99.26-22a165.37,165.37,0,0,1,20,5.25,145.74,145.74,0,0,0-26.29-10C63.94,113.67,20,120.3,9,140.6,4.13,149.7,6.7,160,14.92,169.67Z" fill="#efc236"/><ellipse cx="217.87" cy="26.49" rx="31.56" ry="23.53" transform="translate(0.18 54.46) rotate(-14.25)" fill="#7f7f7f"/><path d="M296.9,7.57c.35-2.54.58-5.07.7-7.57-5.54,15.84-16.75,32-32.6,45.15-33.39,27.66-74.67,31.35-92.21,8.25C169.46,49,165.54,38,165.73,40.14c2.24,25.27-26,45.14-59.39,49.37-18,2.28-34.11-.5-45.21-6.73,21.61,15.94,51,25.93,84.49,26.7C221.06,111.21,288.79,65.59,296.9,7.57Z" fill="#7f7f7f"/><path d="M8.37,162.25c-2.62-5.7-3-11.52-.61-17.1,8.92-21.24,53.37-31.08,99.26-22a165.39,165.39,0,0,1,20,5.24,146.49,146.49,0,0,0-26.29-10c-43.33-12.13-87.31-5.5-98.24,14.8C-2.42,142.27.15,152.57,8.37,162.25Z" fill="#7f7f7f"/></g></g></svg>