<svg xmlns="http://www.w3.org/2000/svg" viewBox="0 0 541.17 306.2"><title>icone_trio</title><g id="Calque_2" data-name="Calque 2"><g id="Calque_2-2" data-name="Calque 2"><ellipse cx="264.95" cy="93.07" rx="31.56" ry="23.53" transform="translate(48.98 272.56) rotate(-59.08)" fill="#efc236"/><path d="M307.66,23.93q-2.31-3.09-4.83-5.86c7.23,15.13,10.68,34.51,8.7,55C307.35,116.22,280.68,148,252,143.93c-5.45-.77-16-5.82-14.35-4.43,19.4,16.34,13.38,50.35-7.32,76.88-11.13,14.28-24.53,23.7-36.81,27.11,26.57-3.93,54.45-17.56,78.75-40.64C326.94,150.9,342.81,70.79,307.66,23.93Z" fill="#efc236"/><path d="M240.75,12.94c-7-1.93-13.7-1.59-19.72,1.4-22.91,11.37-26.93,56.71-9,101.27a157.69,157.69,0,0,0,9.28,19.26,146.15,146.15,0,0,1-15.82-25c-21-41.66-20.59-86.17.93-99.42C216.07,4.56,228.3,5.91,240.75,12.94Z" fill="#efc236"/><ellipse cx="461.44" cy="142.87" rx="31.56" ry="23.53" transform="translate(-20.97 118.02) rotate(-14.25)" fill="#efc236"/><path d="M540.47,123.94q.53-3.81.7-7.57c-5.54,15.84-16.75,32-32.6,45.15-33.39,27.66-75.82,32.68-93.36,9.57-3.34-4.39-11.42-14.87-11.23-12.72,2.24,25.26-20.68,43.29-54.07,47.51-18,2.28-34.1-.49-45.21-6.72,21.61,15.94,51,25.92,84.49,26.69C464.63,227.59,532.36,182,540.47,123.94Z" fill="#efc236"/><path d="M251.94,278.62c-2.62-5.7-3-11.51-.61-17.1,8.92-21.24,53.37-31.07,99.26-22a167.24,167.24,0,0,1,20,5.25,146.49,146.49,0,0,0-26.29-10.05c-43.33-12.12-87.31-5.5-98.24,14.81C241.15,258.65,243.72,268.94,251.94,278.62Z" fill="#efc236"/><ellipse cx="454.89" cy="135.45" rx="31.56" ry="23.53" transform="translate(-19.35 116.18) rotate(-14.25)" fill="#7f7f7f"/><path d="M533.92,116.52c.35-2.54.58-5.07.7-7.57-5.54,15.84-16.75,32-32.6,45.15-33.39,27.66-74.67,31.36-92.21,8.25-3.33-4.39-7.25-15.41-7.06-13.26,2.24,25.27-26,45.14-59.39,49.37-18,2.28-34.1-.49-45.21-6.73,21.61,16,51,25.93,84.49,26.7C458.08,220.16,525.81,174.54,533.92,116.52Z" fill="#7f7f7f"/><path d="M245.39,271.2c-2.62-5.7-3-11.52-.61-17.1,8.92-21.24,53.37-31.07,99.26-22a167.26,167.26,0,0,1,20,5.24,146.49,146.49,0,0,0-26.29-10c-43.33-12.13-87.31-5.5-98.24,14.8C234.6,251.23,237.17,261.52,245.39,271.2Z" fill="#7f7f7f"/><ellipse cx="253.95" cy="89.07" rx="31.56" ry="23.53" transform="translate(47.06 261.18) rotate(-59.08)" fill="#7f7f7f"/><path d="M296.66,19.93q-2.31-3.09-4.83-5.86c7.23,15.13,10.68,34.51,8.7,55C296.35,112.22,269.68,144,241,139.93c-5.45-.77-16-5.82-14.35-4.43,19.4,16.34,13.38,50.35-7.32,76.88-11.13,14.28-24.53,23.7-36.81,27.11,26.57-3.93,54.45-17.56,78.75-40.64C315.94,146.9,331.81,66.79,296.66,19.93Z" fill="#7f7f7f"/><path d="M231.19,6.19c-7-1.93-13.7-1.59-19.72,1.4-22.91,11.37-26.93,56.71-9,101.27a158.4,158.4,0,0,0,9.28,19.26,145.93,145.93,0,0,1-15.82-25C175,61.5,175.36,17,196.88,3.74,206.51-2.19,218.74-.84,231.19,6.19Z" fill="#7f7f7f"/><ellipse cx="95.51" cy="183.63" rx="23.53" ry="31.56" transform="translate(-97.88 109.86) rotate(-41.64)" fill="#efc236"/><path d="M42.35,122.16c-2.42.85-4.77,1.81-7,2.86,16.61-2.37,36.13.15,55.08,8.18,39.92,16.92,62.19,51.87,49.75,78.07-2.37,5-10.35,13.53-8.53,12.37,21.4-13.61,52,2.33,71.15,30,10.29,14.9,15.25,30.52,14.83,43.25,4.21-26.52-.44-57.21-15.16-87.31C169.26,141.82,97.6,102.67,42.35,122.16Z" fill="#efc236"/><path d="M14.11,205.76c-2.19,6.9-2.11,13.63.65,19.77,10.48,23.32,55.63,29.08,100.85,12.84a158.74,158.74,0,0,0,19.6-8.54,146,146,0,0,1-25.55,14.86C67.23,264.08,22.77,262,10.35,240,4.79,230.11,6.61,217.94,14.11,205.76Z" fill="#efc236"/><ellipse cx="88.4" cy="192.92" rx="23.53" ry="31.56" transform="translate(-105.85 107.49) rotate(-41.64)" fill="#7f7f7f"/><path d="M35.24,131.45q-3.63,1.29-7,2.86c16.62-2.37,36.14.15,55.09,8.18,39.92,16.92,62.19,51.88,49.74,78.08-2.36,5-10.35,13.52-8.52,12.36,21.4-13.61,52,2.33,71.15,30,10.28,14.9,15.25,30.51,14.83,43.24,4.21-26.52-.44-57.2-15.17-87.3C162.15,151.12,90.48,112,35.24,131.45Z" fill="#7f7f7f"/><path d="M7,215.06c-2.19,6.89-2.11,13.63.64,19.76,10.49,23.33,55.64,29.08,100.86,12.85a159.4,159.4,0,0,0,19.6-8.54A147,147,0,0,1,102.55,254c-42.43,19.4-86.89,17.28-99.31-4.72C-2.32,239.4-.51,227.23,7,215.06Z" fill="#7f7f7f"/></g></g></svg>