<svg xmlns="http://www.w3.org/2000/svg" viewBox="0 0 148.76 225.42"><title>icone_victoire</title><g id="Calque_2" data-name="Calque 2"><g id="Calque_2-2" data-name="Calque 2"><ellipse cx="87.35" cy="75" rx="31.56" ry="23.53" transform="translate(-21.87 111.41) rotate(-59.08)" fill="#efc236"/><path d="M130.06,5.86Q127.75,2.79,125.23,0c7.23,15.14,10.68,34.51,8.7,55-4.18,43.16-30.85,74.88-59.58,70.86-5.45-.76-16-5.82-14.35-4.43,19.4,16.34,13.38,50.35-7.32,76.89C41.55,212.59,28.15,222,15.87,225.42c26.57-3.93,54.45-17.56,78.75-40.63C149.34,132.84,165.21,52.73,130.06,5.86Z" fill="#efc236"/><path d="M41.84,4C34.6,4,28.2,6.05,23.18,10.52c-19.12,17-11.07,61.79,18,100.07a159.85,159.85,0,0,0,14,16.14,147.31,147.31,0,0,1-21.83-19.92C2.12,72.14-9.19,29.09,8.08,10.65,15.82,2.39,28,.47,41.84,4Z" fill="#efc236"/></g></g></svg>