<svg xmlns="http://www.w3.org/2000/svg" viewBox="0 0 288.16 179.97"><title>icone_plongeon</title><g id="Calque_2" data-name="Calque 2"><g id="Calque_2-2" data-name="Calque 2"><ellipse cx="210.22" cy="31.42" rx="31.56" ry="23.53" transform="translate(0.48 65.88) rotate(-17.83)" fill="#7f7f7f"/><path d="M287.92,7.6c.2-2.56.27-5.09.23-7.6-4.54,16.15-14.72,33-29.72,47.09-31.6,29.69-72.57,36-91.52,14-3.6-4.17-8.19-14.93-7.86-12.79,3.81,25.07-23.15,46.67-56.2,53-17.79,3.4-34.07,1.64-45.55-3.89,22.56,14.56,52.51,22.7,86,21.37C218.69,115.77,283.45,66,287.92,7.6Z" fill="#7f7f7f"/><path d="M9.6,180c-3-5.53-3.67-11.31-1.68-17,7.59-21.75,51.33-34.34,97.71-28.11a164,164,0,0,1,20.28,4A146.74,146.74,0,0,0,99,130.43c-44-9.41-87.49-.05-97.13,20.9C-2.41,160.71.79,170.82,9.6,180Z" fill="#7f7f7f"/></g></g></svg>