<svg xmlns="http://www.w3.org/2000/svg" viewBox="0 0 374.57 264.56"><title>Fichier 30</title><g id="Calque_2" data-name="Calque 2"><g id="Calque_2-2" data-name="Calque 2"><ellipse cx="98.35" cy="79" rx="31.56" ry="23.53" transform="translate(-19.96 122.79) rotate(-59.08)" fill="#efc236"/><path d="M141.06,9.86Q138.75,6.79,136.23,4c7.23,15.14,10.68,34.51,8.7,55-4.18,43.16-30.85,74.88-59.58,70.86-5.45-.76-16-5.82-14.35-4.43,19.4,16.34,13.38,50.35-7.32,76.89C52.55,216.59,39.15,226,26.87,229.42c26.57-3.93,54.45-17.56,78.75-40.63C160.34,136.84,176.21,56.73,141.06,9.86Z" fill="#efc236"/><path d="M52.84,8C45.6,8,39.2,10.05,34.18,14.52c-19.12,17-11.07,61.79,18,100.07a159.85,159.85,0,0,0,14,16.14,147.31,147.31,0,0,1-21.83-19.92C13.12,76.14,1.81,33.09,19.08,14.65,26.82,6.39,39,4.47,52.84,8Z" fill="#efc236"/><ellipse cx="294.84" cy="128.8" rx="31.56" ry="23.53" transform="translate(-22.64 76.57) rotate(-14.25)" fill="#efc236"/><path d="M373.87,109.88c.35-2.54.58-5.07.7-7.57-5.54,15.84-16.75,32-32.6,45.14-33.39,27.67-75.82,32.68-93.36,9.58-3.34-4.39-11.42-14.88-11.23-12.73,2.24,25.27-20.68,43.29-54.07,47.52-18,2.28-34.1-.5-45.21-6.73,21.61,15.94,51,25.93,84.49,26.7C298,213.52,365.76,167.9,373.87,109.88Z" fill="#efc236"/><path d="M85.34,264.56c-2.62-5.71-3-11.52-.61-17.1,8.92-21.24,53.37-31.08,99.26-22a165.39,165.39,0,0,1,20,5.24,146.49,146.49,0,0,0-26.29-10c-43.33-12.13-87.31-5.5-98.24,14.8C74.55,244.58,77.12,254.88,85.34,264.56Z" fill="#efc236"/><ellipse cx="288.29" cy="121.38" rx="31.56" ry="23.53" transform="translate(-21.01 74.72) rotate(-14.25)" fill="#7f7f7f"/><path d="M367.32,102.46q.53-3.83.7-7.57c-5.54,15.84-16.75,32-32.6,45.14-33.39,27.67-74.67,31.36-92.21,8.26-3.33-4.39-7.25-15.41-7.06-13.26,2.24,25.26-26,45.14-59.39,49.37-18,2.27-34.1-.5-45.21-6.73,21.61,15.94,51,25.93,84.49,26.7C291.48,206.1,359.21,160.47,367.32,102.46Z" fill="#7f7f7f"/><path d="M78.79,257.14c-2.62-5.71-3-11.52-.61-17.11,8.92-21.23,53.37-31.07,99.26-22a165.39,165.39,0,0,1,20,5.24,145.74,145.74,0,0,0-26.29-10c-43.33-12.13-87.31-5.51-98.24,14.8C68,237.16,70.57,247.45,78.79,257.14Z" fill="#7f7f7f"/><ellipse cx="87.35" cy="75" rx="31.56" ry="23.53" transform="translate(-21.87 111.41) rotate(-59.08)" fill="#7f7f7f"/><path d="M130.06,5.86Q127.75,2.79,125.23,0c7.23,15.14,10.68,34.51,8.7,55-4.18,43.16-30.85,74.88-59.58,70.86-5.45-.76-16-5.82-14.35-4.43,19.4,16.34,13.38,50.35-7.32,76.89C41.55,212.59,28.15,222,15.87,225.42c26.57-3.93,54.45-17.56,78.75-40.63C149.34,132.84,165.21,52.73,130.06,5.86Z" fill="#7f7f7f"/><path d="M41.84,4C34.6,4,28.2,6.05,23.18,10.52c-19.12,17-11.07,61.79,18,100.07a159.85,159.85,0,0,0,14,16.14,147.31,147.31,0,0,1-21.83-19.92C2.12,72.14-9.19,29.09,8.08,10.65,15.82,2.39,28,.47,41.84,4Z" fill="#7f7f7f"/></g></g></svg>