<svg xmlns="http://www.w3.org/2000/svg" viewBox="0 0 145.89 243.49"><title>icone_victoireDeuxCoul</title><g id="Calque_2" data-name="Calque 2"><g id="Calque_2-2" data-name="Calque 2"><ellipse cx="84.49" cy="93.07" rx="31.56" ry="23.53" transform="translate(-38.77 117.73) rotate(-59.08)" fill="#efc236"/><path d="M127.2,23.93c-1.54-2.06-3.16-4-4.84-5.86,7.24,15.13,10.69,34.51,8.7,55-4.17,43.15-30.84,74.88-59.57,70.86-5.46-.77-16-5.82-14.35-4.43,19.4,16.34,13.37,50.35-7.32,76.88C38.68,230.66,25.28,240.08,13,243.49c26.56-3.93,54.44-17.56,78.74-40.64C146.48,150.9,162.35,70.79,127.2,23.93Z" fill="#efc236"/><path d="M60.29,12.94c-7-1.93-13.7-1.59-19.73,1.4-22.91,11.37-26.93,56.71-9,101.27a159.17,159.17,0,0,0,9.28,19.26,146.15,146.15,0,0,1-15.82-25C4,68.25,4.46,23.74,26,10.49,35.6,4.56,47.83,5.91,60.29,12.94Z" fill="#efc236"/><ellipse cx="73.49" cy="89.07" rx="31.56" ry="23.53" transform="translate(-40.68 106.35) rotate(-59.08)" fill="#7f7f7f"/><path d="M116.2,19.93c-1.54-2.06-3.16-4-4.84-5.86,7.24,15.13,10.69,34.51,8.7,55-4.17,43.15-30.84,74.88-59.57,70.86-5.46-.77-16-5.82-14.35-4.43,19.4,16.34,13.37,50.35-7.32,76.88C27.68,226.66,14.28,236.08,2,239.49c26.56-3.93,54.44-17.56,78.74-40.64C135.48,146.9,151.35,66.79,116.2,19.93Z" fill="#7f7f7f"/><path d="M50.73,6.19C43.76,4.26,37,4.6,31,7.59,8.09,19,4.07,64.3,22,108.86a158.4,158.4,0,0,0,9.28,19.26,146.54,146.54,0,0,1-15.82-25C-5.52,61.5-5.1,17,16.41,3.74,26-2.19,38.27-.84,50.73,6.19Z" fill="#7f7f7f"/></g></g></svg>