<svg xmlns="http://www.w3.org/2000/svg" viewBox="0 0 172.71 262.5"><title>logoLoisirs</title><g id="Calque_2" data-name="Calque 2"><g id="Calque_2-2" data-name="Calque 2"><ellipse cx="71.48" cy="75" rx="31.56" ry="23.53" transform="translate(-29.59 97.79) rotate(-59.08)" fill="#efc236"/><path d="M114.19,5.86c-1.54-2.05-3.16-4-4.84-5.86,7.24,15.14,10.69,34.51,8.71,55-4.18,43.16-30.85,74.88-59.58,70.86-5.46-.76-16-5.82-14.35-4.43,19.4,16.34,13.37,50.35-7.32,76.89C25.68,212.59,12.27,222,0,225.42c26.56-3.93,54.44-17.56,78.75-40.63C133.47,132.84,149.34,52.73,114.19,5.86Z" fill="#efc236"/><path d="M169.73,224.73c.69,6.24-.8,11.87-4.78,16.44C149.82,258.54,104.53,254,63.8,230.93a167.24,167.24,0,0,1-17.34-11.24,145.75,145.75,0,0,0,21.82,17.77c37.35,25.1,81.2,32.58,97.94,16.73C173.71,247.08,174.5,236.51,169.73,224.73Z" fill="#efc236"/></g></g></svg>