<svg xmlns="http://www.w3.org/2000/svg" viewBox="0 0 180.17 172.22"><title>loupe_noire_2</title><g id="Calque_2" data-name="Calque 2"><g id="loupe"><circle cx="63.59" cy="63.59" r="58.07" fill="none" stroke="#434343" stroke-miterlimit="10" stroke-width="11"/><path id="manche" d="M148.22,130.2l-35.69-27.14a3.84,3.84,0,0,0-5.16.07l-1.81,2a3.85,3.85,0,0,0,.37,5.15L136,143.51a5.66,5.66,0,0,0,.67.62l35.69,27.14a3.84,3.84,0,0,0,5.16-.07l1.81-2a3.84,3.84,0,0,0-.36-5.15L148.9,130.82A5.76,5.76,0,0,0,148.22,130.2Zm-4.75,5.71,11.84,12a.89.89,0,1,1-1.2,1.3l-12.9-10.78-.09-.08-11.84-11.94a1,1,0,0,1-.13-1.32,1,1,0,0,1,1.33,0l12.9,10.78Z" fill="#434343"/></g></g></svg>