<svg xmlns="http://www.w3.org/2000/svg" viewBox="0 0 517.4 268.02"><title>Fichier 34</title><g id="Calque_2" data-name="Calque 2"><g id="Calque_2-2" data-name="Calque 2"><ellipse cx="280.04" cy="84.31" rx="31.56" ry="23.53" transform="translate(63.82 281.24) rotate(-59.08)" fill="#efc236"/><path d="M322.75,15.17c-1.54-2.05-3.16-4-4.84-5.86,7.24,15.14,10.69,34.52,8.7,55-4.17,43.16-30.84,74.89-59.57,70.86-5.46-.76-16-5.82-14.35-4.42,19.4,16.33,13.37,50.34-7.32,76.88-11.14,14.27-24.54,23.69-36.81,27.1,26.56-3.93,54.44-17.56,78.74-40.63C342,142.15,357.9,62,322.75,15.17Z" fill="#efc236"/><path d="M31.05,146.25a19.72,19.72,0,0,1,7.2,7.6,22.22,22.22,0,0,1,2.61,10.76q0,1.71-.09,2.61H6.12a18.25,18.25,0,0,0,4.23,11.07,13,13,0,0,0,10.53,4.59,17.88,17.88,0,0,0,9-2,15.49,15.49,0,0,0,5.72-5.62l4.86,3.24a21.11,21.11,0,0,1-7.83,7.33,23.68,23.68,0,0,1-11.52,2.66,20.65,20.65,0,0,1-10.89-2.88,20.05,20.05,0,0,1-7.47-8,26.49,26.49,0,0,1,0-23.22,19.78,19.78,0,0,1,7.38-8,20.23,20.23,0,0,1,10.75-2.88A19.36,19.36,0,0,1,31.05,146.25Zm3.69,15.93q-.9-6.57-4.41-9.86T20.79,149a13,13,0,0,0-9.58,3.73,17,17,0,0,0-4.73,9.41Z" fill="#7f7f7f"/><path d="M54,185.85a17.28,17.28,0,0,1-7.06-7.38l5.49-2.7q3.33,7.11,13.05,7.11a15.72,15.72,0,0,0,7.74-1.71,5.67,5.67,0,0,0,3.06-5.31,6.34,6.34,0,0,0-2.48-5.49q-2.48-1.8-8.68-2.34-8.64-.72-12.38-3.87A10.4,10.4,0,0,1,49,155.79a10.79,10.79,0,0,1,4.23-9.09q4.23-3.24,11.61-3.24,12.51,0,17,9.9l-5.49,2.7a10.8,10.8,0,0,0-4.46-5.31A14.72,14.72,0,0,0,64.35,149q-4.68,0-7.16,1.71a5.55,5.55,0,0,0-2.47,4.86,5.61,5.61,0,0,0,2.65,4.81q2.66,1.85,9.14,2.39,8,.72,11.92,3.91a10.34,10.34,0,0,1,3.92,8.42,11.17,11.17,0,0,1-2.43,7.24,14.86,14.86,0,0,1-6.48,4.55,24.5,24.5,0,0,1-8.73,1.53A21.57,21.57,0,0,1,54,185.85Z" fill="#7f7f7f"/><path d="M99,185.58a20.05,20.05,0,0,1-7.47-8A24.55,24.55,0,0,1,88.83,166a24.88,24.88,0,0,1,2.65-11.61,19.76,19.76,0,0,1,7.43-8,20.48,20.48,0,0,1,10.8-2.88,17.6,17.6,0,0,1,9,2.2,24.29,24.29,0,0,1,7,6.26l-4.5,3.51Q116.73,149,109.71,149a13.82,13.82,0,0,0-7.61,2.16,14.55,14.55,0,0,0-5.26,6,21.11,21.11,0,0,0,0,17.46,14.55,14.55,0,0,0,5.26,6,13.82,13.82,0,0,0,7.61,2.16,15.05,15.05,0,0,0,7.11-1.49,15.92,15.92,0,0,0,5-4.36l4.77,3.33a22.05,22.05,0,0,1-7.34,5.89A21.59,21.59,0,0,1,99,185.58Z" fill="#7f7f7f"/><path d="M173.7,144.9V187h-6.12v-6.21a18.76,18.76,0,0,1-6.39,5.62,17.26,17.26,0,0,1-8.28,2,20.48,20.48,0,0,1-10.8-2.88,20.05,20.05,0,0,1-7.47-8,26.64,26.64,0,0,1,0-23.27,19.9,19.9,0,0,1,7.38-8,20.27,20.27,0,0,1,10.76-2.88,17.68,17.68,0,0,1,8.41,2,18.33,18.33,0,0,1,6.44,5.72v-6.3Zm-13.28,35.82a14.57,14.57,0,0,0,5.27-6,21.11,21.11,0,0,0,0-17.46,14.57,14.57,0,0,0-5.27-6,14,14,0,0,0-7.69-2.16,13.59,13.59,0,0,0-7.56,2.16,14.72,14.72,0,0,0-5.22,6,19.37,19.37,0,0,0-1.89,8.69,19.85,19.85,0,0,0,1.89,8.82,14.67,14.67,0,0,0,5.22,6,13.59,13.59,0,0,0,7.56,2.16A14,14,0,0,0,160.42,180.72Z" fill="#7f7f7f"/><path d="M185.49,187V121.68h6.12V187Z" fill="#7f7f7f"/><path d="M231.75,146.25a19.72,19.72,0,0,1,7.2,7.6,22.22,22.22,0,0,1,2.61,10.76c0,1.14,0,2-.09,2.61H206.82a18.13,18.13,0,0,0,4.23,11.07,13,13,0,0,0,10.53,4.59,17.88,17.88,0,0,0,8.95-2,15.56,15.56,0,0,0,5.72-5.62l4.86,3.24a21.11,21.11,0,0,1-7.83,7.33,23.68,23.68,0,0,1-11.52,2.66,20.6,20.6,0,0,1-10.89-2.88,20,20,0,0,1-7.47-8A24.55,24.55,0,0,1,200.7,166a24.88,24.88,0,0,1,2.65-11.61,19.84,19.84,0,0,1,7.38-8,20.24,20.24,0,0,1,10.76-2.88A19.36,19.36,0,0,1,231.75,146.25Zm3.69,15.93c-.61-4.38-2.07-7.67-4.41-9.86S225.5,149,221.49,149a13,13,0,0,0-9.59,3.73,17,17,0,0,0-4.72,9.41Z" fill="#7f7f7f"/><path d="M324.17,219.58a20,20,0,0,1-7.47-8.06,24.79,24.79,0,0,1-2.7-11.65,24.52,24.52,0,0,1,2.66-11.57,19.83,19.83,0,0,1,7.38-8,20.23,20.23,0,0,1,10.75-2.88,20.48,20.48,0,0,1,10.8,2.88,20.05,20.05,0,0,1,7.47,8,24.55,24.55,0,0,1,2.7,11.61,25,25,0,0,1-2.65,11.61,19.91,19.91,0,0,1-7.38,8A20.27,20.27,0,0,1,335,222.46,20.48,20.48,0,0,1,324.17,219.58Zm18.32-4.86a14.55,14.55,0,0,0,5.26-6,21.11,21.11,0,0,0,0-17.46,14.55,14.55,0,0,0-5.26-6,14,14,0,0,0-7.7-2.16,13.59,13.59,0,0,0-7.56,2.16,14.72,14.72,0,0,0-5.22,6,19.37,19.37,0,0,0-1.89,8.69,19.85,19.85,0,0,0,1.89,8.82,14.67,14.67,0,0,0,5.22,6,13.59,13.59,0,0,0,7.56,2.16A14,14,0,0,0,342.49,214.72Z" fill="#7f7f7f"/><path d="M367.32,169.27a4.85,4.85,0,0,1-1.39-3.51,4.6,4.6,0,0,1,1.39-3.38,5,5,0,0,1,6.89,0,4.87,4.87,0,1,1-6.89,6.89Zm.41,51.75V178.9h6.12V221Z" fill="#7f7f7f"/><path d="M392.61,219.85a17.28,17.28,0,0,1-7.06-7.38l5.49-2.7q3.33,7.11,13,7.11a15.72,15.72,0,0,0,7.74-1.71,5.67,5.67,0,0,0,3.06-5.31,6.34,6.34,0,0,0-2.48-5.49q-2.48-1.8-8.68-2.34-8.64-.72-12.38-3.87a10.4,10.4,0,0,1-3.73-8.37,10.79,10.79,0,0,1,4.23-9.09q4.23-3.24,11.61-3.24,12.51,0,17,9.9l-5.49,2.7a10.8,10.8,0,0,0-4.46-5.31A14.72,14.72,0,0,0,403,183q-4.68,0-7.16,1.71a5.55,5.55,0,0,0-2.47,4.86,5.61,5.61,0,0,0,2.65,4.81q2.66,1.85,9.14,2.39,8,.72,11.92,3.91a10.34,10.34,0,0,1,3.92,8.42,11.17,11.17,0,0,1-2.43,7.24,14.86,14.86,0,0,1-6.48,4.55,24.5,24.5,0,0,1-8.73,1.53A21.57,21.57,0,0,1,392.61,219.85Z" fill="#7f7f7f"/><path d="M433.2,169.27a4.85,4.85,0,0,1-1.39-3.51,4.6,4.6,0,0,1,1.39-3.38,5,5,0,0,1,6.89,0,4.87,4.87,0,1,1-6.89,6.89Zm.41,51.75V178.9h6.12V221Z" fill="#7f7f7f"/><path d="M479.24,178.09v5.58a9.5,9.5,0,0,0-4.14-.9,13,13,0,0,0-7.2,2.16,15.32,15.32,0,0,0-5.36,6.25,21.62,21.62,0,0,0-2,9.68V221H454.4V178.9h6.12v8.46a19.79,19.79,0,0,1,6.16-7.29,14.36,14.36,0,0,1,8.42-2.61A13.57,13.57,0,0,1,479.24,178.09Z" fill="#7f7f7f"/><path d="M489,219.85a17.28,17.28,0,0,1-7.06-7.38l5.49-2.7q3.33,7.11,13.05,7.11a15.72,15.72,0,0,0,7.74-1.71,5.67,5.67,0,0,0,3.06-5.31,6.34,6.34,0,0,0-2.48-5.49q-2.48-1.8-8.68-2.34-8.64-.72-12.38-3.87a10.4,10.4,0,0,1-3.73-8.37,10.79,10.79,0,0,1,4.23-9.09q4.23-3.24,11.61-3.24,12.51,0,17,9.9l-5.49,2.7a10.8,10.8,0,0,0-4.46-5.31A14.72,14.72,0,0,0,499.4,183q-4.68,0-7.16,1.71a5.55,5.55,0,0,0-2.47,4.86,5.61,5.61,0,0,0,2.65,4.81q2.65,1.85,9.14,2.39,8,.72,11.92,3.91a10.34,10.34,0,0,1,3.92,8.42,11.17,11.17,0,0,1-2.43,7.24,14.86,14.86,0,0,1-6.48,4.55,24.5,24.5,0,0,1-8.73,1.53A21.57,21.57,0,0,1,489,219.85Z" fill="#7f7f7f"/><path d="M372.16,233.39a18.44,18.44,0,0,1-4.49,15.09c-14.31,15.92-57.33,11.56-96.08-9.74a160.35,160.35,0,0,1-16.5-10.4,138.89,138.89,0,0,0,20.78,16.42c35.54,23.19,77.2,30.22,93.05,15.69C376,254,376.73,244.23,372.16,233.39Z" fill="#7f7f7f"/><path d="M265.84,6.19c-7-1.93-13.7-1.59-19.73,1.4-22.91,11.37-26.93,56.71-9,101.27a159.9,159.9,0,0,0,9.28,19.26,146.54,146.54,0,0,1-15.82-25C209.59,61.5,210,17,231.52,3.74,241.15-2.19,253.38-.84,265.84,6.19Z" fill="#efc236"/></g></g></svg>